<svg xmlns:xlink="http://www.w3.org/1999/xlink" width="127.91776969696957" xmlns="http://www.w3.org/2000/svg" id="screenshot" version="1.1" viewBox="-0.08804848484851391 0.05952362948937662 127.91776969696957 128.10017391304336" height="128.10017391304336" style="-webkit-print-color-adjust: exact;"><g id="shape-32c03d30-5147-11ec-a58a-2bbf76281660"><path d="M62.93578989899015,35.09498676748626C54.37297777777803,35.09498676748626,48.1066666666668,28.68651795841197,48.1066666666668,19.845081285444394C48.1066666666668,11.00364461247591,54.37297777777803,4.495485822306364,62.93578989899015,4.495485822306364C71.49860202020227,4.495485822306364,77.83033535353547,11.004370510397166,77.83033535353547,19.845081285444394C77.83033535353547,28.68579206049162,71.61315555555575,35.09498676748626,62.93578989899015,35.09498676748626ZM62.99319595959605,39.62313799621916C74.74644040404064,39.62313799621916,83.3095111111113,31.334351606805285,83.3095111111113,19.84532325141754C83.3095111111113,8.356294896029794,74.74644040404064,0.05952362948937662,62.99319595959605,0.05952362948937662C51.23995151515169,0.05952362948937662,42.6194747474749,8.348310018904158,42.6194747474749,19.845081285444394C42.6194747474749,31.34185255198463,51.182286868687015,39.62289603024601,62.99319595959605,39.62313799621916ZM2.4217858585861904,127.7372249527416L2.3726545454546795,89.08703213610534L14.675652525252644,89.08703213610534C26.28124444444461,89.08703213610534,35.402084848485174,95.96346313799586,35.402084848485174,108.39664272211758C35.402084848485174,120.82982230623838,26.248662626262785,127.7372249527416,14.675652525252644,127.7372249527416L2.4217858585861904,127.7372249527416ZM7.736759595959711,123.2090737240078L14.528000000000247,123.2090737240078C22.500202020202323,123.2090737240078,29.882052525252675,118.94974669187195,29.882052525252675,108.39688468809072C29.882052525252675,97.8440226843104,22.500202020202323,93.53073724007572,14.528000000000247,93.53073724007572L7.736759595959711,93.53073724007572L7.736759595959711,123.2090737240078ZM107.51340606060603,128.15969754253274C95.702496969697,128.15969754253274,87.13968484848488,119.86365217391267,87.13968484848488,108.37413988657863C87.13968484848488,96.88462759924369,95.75990303030312,88.59608317580387,107.51340606060603,88.59608317580387C119.26690909090894,88.59608317580387,127.82972121212106,96.87712665406434,127.82972121212106,108.37389792060458C127.82972121212106,119.87066918714572,119.26690909090894,128.1594555765596,107.51340606060603,128.15969754253274ZM107.45600000000013,123.62356143667239C116.13362424242428,123.62356143667239,122.33425454545454,117.215092627599,122.33425454545454,108.37365595463143C122.33425454545454,99.53221928166386,116.01907070707057,93.07003402646478,107.45600000000013,93.07003402646478C98.89292929292924,93.07003402646478,92.63515151515139,99.53221928166386,92.63515151515139,108.37365595463143C92.63515151515139,117.215092627599,98.89318787878801,123.62356143667239,107.45600000000013,123.62356143667239ZM19.99036767676762,83.51552362948951C28.905890909090886,83.51552362948951,35.344420202020274,78.91066918714569,37.411296969697105,71.58127788279762L32.03891717171723,70.52993572778814C30.562650505050442,75.90158034026445,26.37149090909088,78.97212854442296,19.93296161616172,78.97212854442296C11.542367676767753,78.97212854442296,5.464824242424356,73.60048393194666,5.464824242424356,63.722223062382C5.464824242424356,53.843962192816434,11.541591919191887,48.411100189036006,19.93296161616172,48.411100189036006C26.371749494949654,48.411100189036006,30.800549494949564,51.67280151228715,32.09632323232336,57.25253686200358L37.411296969697105,56.14747826086932C35.69713131313142,48.7029111531192,29.028977777777754,43.95239319470693,19.99036767676762,43.95239319470693C9.655983838383918,43.95166729678567,-0.08804848484851391,50.421595463138146,-0.08804848484851391,63.760211720226835C-0.08804848484851391,77.09882797731552,9.598319191919245,83.53802646502845,19.99036767676762,83.51552362948951ZM60.491636363636644,88.83369376181508L44.11229090909137,127.56833270321295L49.87875555555593,127.56833270321295L62.97716363636391,95.47227221172034L76.25606464646489,127.56833270321295L81.84151919191959,127.56833270321295L65.40450909090941,88.83369376181508L60.491636363636644,88.83369376181508ZM49.869963636363764,82.90117202268357L57.12071111111118,65.12731947069915L62.96009696969713,50.81285444234345L76.23899797979811,82.90117202268357L81.82445252525258,82.90117202268357L65.38795959595973,44.1742759924382L60.47482828282841,44.1742759924382L44.095741414141685,82.90117202268357L49.869963636363764,82.90117202268357ZM104.6019878787879,83.07756521739066L109.97436767676777,83.07756521739066L109.97436767676777,48.87107750472569L123.08932525252521,48.87107750472569L123.08932525252521,44.39664272211667L91.43738181818185,44.39664272211667L91.43738181818185,48.87107750472569L104.6019878787879,48.87107750472569L104.6019878787879,83.07756521739066Z" style="fill: rgb(0, 0, 0);"/></g></svg>